PathFileType	4	(X/Y/Z) rotbonepin.trc
DataRate	CameraRate	NumFrames	NumMarkers	Units	OrigDataRate	OrigDataStartFrame	OrigNumFrames
100	100	22	11	mm	100	394	3147
Frame#	Time	gu			centelbow			EpL			centpxt8			centijc7			ij			ts			ac			ai			acc			ijc
		X1	Y1	Z1	X2	Y2	Z2	X3	Y3	Z3	X4	Y4	Z4	X5	Y5	Z5	X6	Y6	Z6	X7	Y7	Z7	X8	Y8	Z8	X9	Y9	Z9  X10	Y10	Z10  X11	Y11	Z11
393	3.93	343.619	19.681	4.517	406.642	-13.179	249.993	381.614	1.901	251.508	357.496	-170.793	-111.618	351.888	22.985	-146.856	394.6	-11.197	-139.006	265.664	-11.074	-78.064	330.934	58.48	-15.525	300.37	-123.965	-26.293	330.934	58.48	-15.525	394.6	-11.197	-139.006
394	3.94	343.597	19.761	4.6	406.763	-13.153	250.031	381.673	1.822	251.566	357.486	-170.76	-111.611	351.834	23.023	-146.818	394.553	-11.15	-138.97	265.687	-11.179	-78.018	330.904	58.434	-15.489	300.471	-124.035	-26.224	330.904	58.434	-15.489	394.553	-11.15	-138.97
395	3.95	343.347	19.721	4.577	406.721	-13.278	249.944	381.587	1.619	251.506	357.423	-170.763	-111.623	351.733	23.025	-146.795	394.459	-11.143	-138.965	265.684	-11.262	-77.961	330.85	58.407	-15.442	300.538	-124.084	-26.14	330.85	58.407	-15.442	394.459	-11.143	-138.965
396	3.96	343.201	19.687	4.577	406.84	-13.348	249.87	381.666	1.479	251.464	357.352	-170.79	-111.664	351.633	23.001	-146.811	394.365	-11.165	-139.007	265.669	-11.337	-77.895	330.8	58.391	-15.404	300.607	-124.124	-26.054	330.8	58.391	-15.404	394.365	-11.165	-139.007
397	3.97	343.351	19.752	4.708	407.187	-13.244	249.956	381.964	1.499	251.568	357.334	-170.803	-111.714	351.585	22.992	-146.838	394.323	-11.171	-139.053	265.679	-11.417	-77.819	330.781	58.37	-15.363	300.72	-124.168	-25.971	330.781	58.37	-15.363	394.323	-11.171	-139.053
398	3.98	343.617	19.851	4.899	407.537	-13.098	250.131	382.263	1.558	251.751	357.345	-170.794	-111.708	351.58	23.004	-146.812	394.321	-11.156	-139.027	265.702	-11.502	-77.715	330.767	58.341	-15.284	300.847	-124.222	-25.869	330.767	58.341	-15.284	394.321	-11.156	-139.027
399	3.99	343.705	19.857	4.998	407.708	-13.107	250.206	382.396	1.48	251.837	357.323	-170.783	-111.608	351.58	23.015	-146.715	394.316	-11.147	-138.915	265.682	-11.582	-77.582	330.711	58.317	-15.176	300.922	-124.269	-25.729	330.711	58.317	-15.176	394.316	-11.147	-138.915
400	4	343.578	19.742	4.972	407.774	-13.295	250.12	382.438	1.248	251.776	357.292	-170.772	-111.491	351.579	23.024	-146.616	394.31	-11.143	-138.804	265.623	-11.659	-77.462	330.626	58.304	-15.102	300.95	-124.304	-25.577	330.626	58.304	-15.102	394.31	-11.143	-138.804
401	4.01	343.464	19.619	4.943	407.914	-13.492	250.015	382.559	1.013	251.702	357.298	-170.768	-111.456	351.594	23.028	-146.584	394.324	-11.141	-138.773	265.596	-11.754	-77.383	330.577	58.282	-15.081	301.007	-124.35	-25.448	330.577	58.282	-15.081	394.324	-11.141	-138.773
402	4.02	343.55	19.61	5.028	408.165	-13.53	250.052	382.779	0.919	251.758	357.333	-170.785	-111.49	351.615	23.013	-146.599	394.347	-11.154	-138.796	265.649	-11.867	-77.309	330.59	58.245	-15.052	301.15	-124.413	-25.328	330.59	58.245	-15.052	394.347	-11.154	-138.796
403	4.03	343.742	19.702	5.193	408.384	-13.445	250.209	382.954	0.926	251.92	357.364	-170.804	-111.509	351.619	22.997	-146.598	394.356	-11.165	-138.798	265.759	-11.964	-77.194	330.635	58.23	-14.96	301.368	-124.46	-25.176	330.635	58.23	-14.96	394.356	-11.165	-138.798
404	4.04	343.804	19.768	5.31	408.459	-13.429	250.315	382.983	0.86	252.031	357.369	-170.809	-111.465	351.601	22.993	-146.54	394.342	-11.163	-138.739	265.866	-12.035	-77.048	330.667	58.248	-14.837	301.589	-124.475	-24.991	330.667	58.248	-14.837	394.342	-11.163	-138.739
405	4.05	343.693	19.744	5.319	408.486	-13.559	250.274	382.974	0.663	252.012	357.341	-170.826	-111.382	351.572	22.979	-146.449	394.313	-11.178	-138.649	265.925	-12.125	-76.907	330.671	58.244	-14.736	301.744	-124.508	-24.792	330.671	58.244	-14.736	394.313	-11.178	-138.649
406	4.06	343.609	19.709	5.299	408.666	-13.679	250.173	383.12	0.477	251.943	357.319	-170.864	-111.316	351.559	22.941	-146.382	394.298	-11.219	-138.587	265.941	-12.276	-76.78	330.658	58.172	-14.668	301.832	-124.604	-24.596	330.658	58.172	-14.668	394.298	-11.219	-138.587
407	4.07	343.7	19.752	5.355	409.033	-13.633	250.155	383.443	0.44	251.955	357.363	-170.885	-111.291	351.58	22.919	-146.357	394.324	-11.236	-138.564	265.942	-12.462	-76.667	330.623	58.071	-14.614	301.921	-124.731	-24.417	330.623	58.071	-14.614	394.324	-11.236	-138.564
408	4.08	343.849	19.84	5.489	409.412	-13.484	250.236	383.769	0.489	252.058	357.468	-170.845	-111.279	351.612	22.959	-146.329	394.369	-11.179	-138.531	265.945	-12.617	-76.559	330.551	58.031	-14.558	302.067	-124.811	-24.247	330.551	58.031	-14.558	394.369	-11.179	-138.531
409	4.09	343.829	19.87	5.605	409.651	-13.436	250.285	383.956	0.437	252.134	357.541	-170.768	-111.246	351.608	23.039	-146.267	394.377	-11.082	-138.467	265.922	-12.731	-76.44	330.419	58.066	-14.496	302.24	-124.83	-24.06	330.419	58.066	-14.496	394.377	-11.082	-138.467
410	4.1	343.636	19.827	5.644	409.825	-13.557	250.215	384.083	0.224	252.107	357.514	-170.732	-111.21	351.55	23.079	-146.21	394.326	-11.037	-138.419	265.854	-12.865	-76.309	330.253	58.095	-14.449	302.385	-124.857	-23.848	330.253	58.095	-14.449	394.326	-11.037	-138.419
411	4.11	343.544	19.825	5.688	410.151	-13.678	250.129	384.358	0.001	252.073	357.45	-170.755	-111.207	351.482	23.056	-146.201	394.258	-11.061	-138.423	265.82	-13.055	-76.185	330.143	58.062	-14.426	302.555	-124.942	-23.64	330.143	58.062	-14.426	394.258	-11.061	-138.423
412	4.12	343.73	19.932	5.845	410.686	-13.667	250.177	384.828	-0.119	252.164	357.448	-170.778	-111.231	351.453	23.034	-146.217	394.235	-11.079	-138.448	265.888	-13.266	-76.075	330.127	58.001	-14.404	302.826	-125.054	-23.462	330.127	58.001	-14.404	394.235	-11.079	-138.448
413	4.13	343.97	20.045	6.047	411.207	-13.648	250.289	385.279	-0.24	252.312	357.499	-170.775	-111.232	351.475	23.038	-146.208	394.261	-11.069	-138.442	265.984	-13.449	-75.98	330.122	57.962	-14.369	303.126	-125.144	-23.313	330.122	57.962	-14.369	394.261	-11.069	-138.442
414	4.14	343.915	20.02	6.115	411.52	-13.796	250.239	385.534	-0.507	252.308	357.539	-170.777	-111.187	351.515	23.037	-146.156	394.301	-11.07	-138.388	265.999	-13.603	-75.906	330.046	57.946	-14.36	303.334	-125.207	-23.185	330.046	57.946	-14.36	394.301	-11.07	-138.388
